<svg width="80" height="80" viewBox="0 0 80 80" fill="none" xmlns="http://www.w3.org/2000/svg">
<path d="M31 30V27H33V30H36V32H33V35H31V32H28V30H31ZM34 36V33H37V30H44L45.83 32H49C50.1 32 51 32.9 51 34V46C51 47.1 50.1 48 49 48H33C31.9 48 31 47.1 31 46V36H34ZM41 45C43.76 45 46 42.76 46 40C46 37.24 43.76 35 41 35C38.24 35 36 37.24 36 40C36 42.76 38.24 45 41 45ZM37.8 40C37.8 41.77 39.23 43.2 41 43.2C42.77 43.2 44.2 41.77 44.2 40C44.2 38.23 42.77 36.8 41 36.8C39.23 36.8 37.8 38.23 37.8 40Z" fill="#326243"/>
<path d="M8 79.5C6.98214 79.5 6.01284 79.2975 5.12923 78.9311L4.74617 79.8548C5.74908 80.2707 6.84839 80.5 8 80.5V79.5ZM1.06891 74.8708C0.702487 73.9872 0.5 73.0179 0.5 72H-0.5C-0.5 73.1516 -0.270709 74.2509 0.145181 75.2538L1.06891 74.8708ZM0.5 72V68.8H-0.5V72H0.5ZM0.5 62.4V56H-0.5V62.4H0.5ZM0.5 49.6V43.2H-0.5V49.6H0.5ZM0.5 36.8V30.4H-0.5V36.8H0.5ZM0.5 24V17.6H-0.5V24H0.5ZM0.5 11.2V8H-0.5V11.2H0.5ZM0.5 8C0.5 6.98214 0.702487 6.01284 1.06891 5.12923L0.145182 4.74617C-0.270708 5.74908 -0.5 6.84839 -0.5 8H0.5ZM5.12923 1.06891C6.01284 0.702487 6.98214 0.5 8 0.5V-0.5C6.84839 -0.5 5.74908 -0.270709 4.74617 0.145181L5.12923 1.06891ZM8 0.5H11.2V-0.5H8V0.5ZM17.6 0.5H24V-0.5H17.6V0.5ZM30.4 0.5H36.8V-0.5H30.4V0.5ZM43.2 0.5H49.6V-0.5H43.2V0.5ZM56 0.5H62.4V-0.5H56V0.5ZM68.8 0.5H72V-0.5H68.8V0.5ZM72 0.5C73.0179 0.5 73.9872 0.702487 74.8708 1.06891L75.2538 0.145182C74.2509 -0.270708 73.1516 -0.5 72 -0.5V0.5ZM78.9311 5.12923C79.2975 6.01284 79.5 6.98214 79.5 8H80.5C80.5 6.84839 80.2707 5.74908 79.8548 4.74617L78.9311 5.12923ZM79.5 8V11.2H80.5V8H79.5ZM79.5 17.6V24H80.5V17.6H79.5ZM79.5 30.4V36.8H80.5V30.4H79.5ZM79.5 43.2V49.6H80.5V43.2H79.5ZM79.5 56V62.4H80.5V56H79.5ZM79.5 68.8V72H80.5V68.8H79.5ZM79.5 72C79.5 73.0179 79.2975 73.9872 78.9311 74.8708L79.8548 75.2538C80.2707 74.2509 80.5 73.1516 80.5 72H79.5ZM74.8708 78.9311C73.9872 79.2975 73.0179 79.5 72 79.5V80.5C73.1516 80.5 74.2509 80.2707 75.2538 79.8548L74.8708 78.9311ZM72 79.5H68.8V80.5H72V79.5ZM62.4 79.5H56V80.5H62.4V79.5ZM49.6 79.5H43.2V80.5H49.6V79.5ZM36.8 79.5H30.4V80.5H36.8V79.5ZM24 79.5H17.6V80.5H24V79.5ZM11.2 79.5H8V80.5H11.2V79.5ZM8 79C7.04902 79 6.14472 78.8109 5.32075 78.4692L4.55464 80.3167C5.6172 80.7573 6.78152 81 8 81V79ZM1.53077 74.6792C1.18908 73.8553 1 72.951 1 72H-1C-1 73.2185 -0.757306 74.3828 -0.316682 75.4454L1.53077 74.6792ZM1 72V68.8H-1V72H1ZM1 62.4V56H-1V62.4H1ZM1 49.6V43.2H-1V49.6H1ZM1 36.8V30.4H-1V36.8H1ZM1 24V17.6H-1V24H1ZM1 11.2V8H-1V11.2H1ZM1 8C1 7.04902 1.18909 6.14472 1.53077 5.32075L-0.316681 4.55464C-0.757306 5.6172 -1 6.78152 -1 8H1ZM5.32075 1.53077C6.14472 1.18908 7.04902 1 8 1V-1C6.78152 -1 5.6172 -0.757306 4.55464 -0.316682L5.32075 1.53077ZM8 1H11.2V-1H8V1ZM17.6 1H24V-1H17.6V1ZM30.4 1H36.8V-1H30.4V1ZM43.2 1H49.6V-1H43.2V1ZM56 1H62.4V-1H56V1ZM68.8 1H72V-1H68.8V1ZM72 1C72.951 1 73.8553 1.18909 74.6792 1.53077L75.4454 -0.316681C74.3828 -0.757306 73.2185 -1 72 -1V1ZM78.4692 5.32075C78.8109 6.14472 79 7.04902 79 8H81C81 6.78152 80.7573 5.6172 80.3167 4.55464L78.4692 5.32075ZM79 8V11.2H81V8H79ZM79 17.6V24H81V17.6H79ZM79 30.4V36.8H81V30.4H79ZM79 43.2V49.6H81V43.2H79ZM79 56V62.4H81V56H79ZM79 68.8V72H81V68.8H79ZM79 72C79 72.951 78.8109 73.8553 78.4692 74.6792L80.3167 75.4454C80.7573 74.3828 81 73.2185 81 72H79ZM74.6792 78.4692C73.8553 78.8109 72.951 79 72 79V81C73.2185 81 74.3828 80.7573 75.4454 80.3167L74.6792 78.4692ZM72 79H68.8V81H72V79ZM62.4 79H56V81H62.4V79ZM49.6 79H43.2V81H49.6V79ZM36.8 79H30.4V81H36.8V79ZM24 79H17.6V81H24V79ZM11.2 79H8V81H11.2V79Z" fill="#326243" fill-opacity="0.3"/>
</svg>
