<svg width="24" height="24" viewBox="0 0 24 24" fill="none" xmlns="http://www.w3.org/2000/svg">
<path d="M5.38775 5.78687H3.91837V17.8049H5.38775V5.78687Z" fill="#326243"/>
<path d="M8.32653 5.78687H6.85715V14.8004H8.32653V5.78687Z" fill="#326243"/>
<path d="M11.2653 5.78687H9.79591V14.8004H11.2653V5.78687Z" fill="#326243"/>
<path d="M14.2041 5.78687H12.7347V17.8049H14.2041V5.78687Z" fill="#326243"/>
<path d="M17.1428 5.78687H15.6735V14.8004H17.1428V5.78687Z" fill="#326243"/>
<path d="M20.0816 5.78687H18.6122V17.8049H20.0816V5.78687Z" fill="#326243"/>
<path d="M8.32653 16.3025H6.85715V17.8047H8.32653V16.3025Z" fill="#326243"/>
<path d="M11.2653 16.3025H9.79591V17.8047H11.2653V16.3025Z" fill="#326243"/>
<path d="M17.1428 16.3025H15.6735V17.8047H17.1428V16.3025Z" fill="#326243"/>
<path fill-rule="evenodd" clip-rule="evenodd" d="M4 2H1.46939H0V3.5V6.5H1.46939L1.46939 3.5H4V2Z" fill="#326243"/>
<path fill-rule="evenodd" clip-rule="evenodd" d="M24 6.5L24 3.5L24 2L22.5306 2L19.5918 2L19.5918 3.5L22.5306 3.5L22.5306 6.5L24 6.5Z" fill="#326243"/>
<path fill-rule="evenodd" clip-rule="evenodd" d="M19.5918 22L22.5306 22L24 22L24 20.5L24 17.5L22.5306 17.5L22.5306 20.5L19.5918 20.5L19.5918 22Z" fill="#326243"/>
<path fill-rule="evenodd" clip-rule="evenodd" d="M-2.56169e-07 17.5L-8.53895e-08 20.5L0 22L1.46939 22L4.40816 22L4.40816 20.5L1.46939 20.5L1.46939 17.5L-2.56169e-07 17.5Z" fill="#326243"/>
</svg>
