<svg width="28" height="24" viewBox="0 0 28 24" fill="none" xmlns="http://www.w3.org/2000/svg">
<path d="M11.9219 0C10.205 0 8.67022 1.10721 8.12762 2.73698L7.70575 4H3.33335C1.87594 4 0.666687 5.20925 0.666687 6.66667V21.3333C0.666687 22.7908 1.87594 24 3.33335 24H24.6667C26.1241 24 27.3334 22.7908 27.3334 21.3333V6.66667C27.3334 5.20925 26.1241 4 24.6667 4H20.2943L19.8724 2.73698C19.3301 1.10814 17.795 0 16.0781 0H11.9219ZM11.9219 2.66667H16.0781C16.6573 2.66667 17.1607 3.0283 17.3438 3.57812L18.3724 6.66667H24.6667V21.3333H3.33335V6.66667H9.62762L10.6563 3.57812C10.839 3.02922 11.3427 2.66667 11.9219 2.66667ZM14 8C11.0702 8 8.66669 10.4036 8.66669 13.3333C8.66669 16.2631 11.0702 18.6667 14 18.6667C16.9298 18.6667 19.3334 16.2631 19.3334 13.3333C19.3334 10.4036 16.9298 8 14 8ZM14 10.6667C15.4889 10.6667 16.6667 11.8444 16.6667 13.3333C16.6667 14.8222 15.4889 16 14 16C12.5111 16 11.3334 14.8222 11.3334 13.3333C11.3334 11.8444 12.5111 10.6667 14 10.6667Z" fill="#326243"/>
</svg>
