<svg width="24" height="24" viewBox="0 0 24 24" fill="none" xmlns="http://www.w3.org/2000/svg">
<path d="M12 16C11.7664 16.0005 11.5399 15.9191 11.36 15.77L5.36003 10.77C5.15581 10.6003 5.02739 10.3564 5.00301 10.092C4.97863 9.82753 5.06029 9.56425 5.23003 9.36003C5.39977 9.15581 5.64368 9.02739 5.90811 9.00301C6.17253 8.97863 6.43581 9.06029 6.64003 9.23003L12 13.71L17.36 9.39003C17.4623 9.30697 17.58 9.24493 17.7064 9.2075C17.8327 9.17007 17.9652 9.15798 18.0962 9.17192C18.2272 9.18586 18.3542 9.22555 18.4699 9.28873C18.5855 9.3519 18.6875 9.4373 18.77 9.54003C18.8616 9.64285 18.931 9.76348 18.9738 9.89435C19.0166 10.0252 19.0319 10.1635 19.0187 10.3006C19.0056 10.4377 18.9643 10.5705 18.8974 10.6909C18.8305 10.8112 18.7395 10.9165 18.63 11L12.63 15.83C12.4449 15.9555 12.2231 16.0154 12 16Z" fill="#326243"/>
</svg>
