<svg width="24" height="24" viewBox="0 0 24 24" fill="none" xmlns="http://www.w3.org/2000/svg">
<path d="M12 16C11.7664 16.0004 11.5399 15.9191 11.36 15.77L5.36003 10.77C5.15581 10.6002 5.02739 10.3563 5.00301 10.0919C4.97863 9.82747 5.06029 9.56419 5.23003 9.35997C5.39977 9.15575 5.64368 9.02733 5.90811 9.00295C6.17253 8.97857 6.43581 9.06023 6.64003 9.22997L12 13.71L17.36 9.38997C17.4623 9.3069 17.58 9.24487 17.7064 9.20744C17.8327 9.17001 17.9652 9.15792 18.0962 9.17186C18.2272 9.18579 18.3542 9.22549 18.4699 9.28866C18.5855 9.35184 18.6875 9.43724 18.77 9.53997C18.8616 9.64279 18.931 9.76342 18.9738 9.89429C19.0166 10.0252 19.0319 10.1635 19.0187 10.3005C19.0056 10.4376 18.9643 10.5705 18.8974 10.6908C18.8305 10.8112 18.7395 10.9164 18.63 11L12.63 15.83C12.4449 15.9555 12.2231 16.0153 12 16V16Z" fill="#393C48"/>
</svg>
