<svg width="24" height="24" viewBox="0 0 24 24" fill="none" xmlns="http://www.w3.org/2000/svg">
<path d="M12 9.00119C11.7664 9.00073 11.5399 9.08211 11.36 9.23119L5.36003 14.2312C5.15581 14.4009 5.02739 14.6448 5.00301 14.9093C4.97863 15.1737 5.06029 15.437 5.23003 15.6412C5.39977 15.8454 5.64368 15.9738 5.90811 15.9982C6.17253 16.0226 6.43581 15.9409 6.64003 15.7712L12 11.2912L17.36 15.6112C17.4623 15.6943 17.58 15.7563 17.7064 15.7937C17.8327 15.8312 17.9652 15.8432 18.0962 15.8293C18.2272 15.8154 18.3542 15.7757 18.4699 15.7125C18.5855 15.6493 18.6875 15.5639 18.77 15.4612C18.8616 15.3584 18.931 15.2377 18.9738 15.1069C19.0166 14.976 19.0319 14.8377 19.0187 14.7006C19.0056 14.5636 18.9643 14.4307 18.8974 14.3103C18.8305 14.19 18.7395 14.0847 18.63 14.0012L12.63 9.17119C12.4449 9.04567 12.2231 8.98582 12 9.00119Z" fill="#326243"/>
</svg>
