<svg width="25" height="24" viewBox="0 0 25 24" fill="none" xmlns="http://www.w3.org/2000/svg">
<path d="M12.0322 8C11.7979 7.99954 11.5709 8.08092 11.3905 8.23L5.37443 13.23C5.16966 13.3997 5.04089 13.6436 5.01645 13.9081C4.992 14.1725 5.07389 14.4358 5.24408 14.64C5.41427 14.8442 5.65883 14.9726 5.92397 14.997C6.1891 15.0214 6.45308 14.9397 6.65785 14.77L12.0322 10.29L17.4065 14.61C17.5091 14.6931 17.6271 14.7551 17.7538 14.7925C17.8804 14.83 18.0133 14.8421 18.1447 14.8281C18.276 14.8142 18.4034 14.7745 18.5193 14.7113C18.6352 14.6481 18.7375 14.5627 18.8203 14.46C18.9121 14.3572 18.9816 14.2366 19.0246 14.1057C19.0675 13.9748 19.0828 13.8365 19.0696 13.6994C19.0564 13.5624 19.015 13.4295 18.948 13.3091C18.8809 13.1888 18.7896 13.0835 18.6799 13L12.6639 8.17C12.4783 8.04448 12.2559 7.98463 12.0322 8V8Z" fill="#393C48"/>
</svg>
