<svg width="18" height="18" viewBox="0 0 18 18" fill="none" xmlns="http://www.w3.org/2000/svg">
<g id="iconmonstr-favorite-6 1" clip-path="url(#clip0_1102_849)">
<path id="Vector" d="M13.1372 2.25C14.9237 2.25 16.5025 3.423 16.5025 5.784C16.5025 9.50625 11.6065 12.0067 9.00023 14.7352C6.39398 12.0067 1.49873 9.507 1.49873 5.78475C1.49873 3.4935 3.00473 2.25 4.86398 2.25C7.24898 2.25 8.49848 4.983 9.00023 6.234C9.50048 4.9845 10.75 2.25 13.1372 2.25ZM13.1372 0.75C11.5067 0.75 9.87773 1.5465 9.00023 3.31425C8.12273 1.5465 6.49373 0.75 4.86398 0.75C2.31173 0.75 0.000976562 2.5425 0.000976562 5.76675C0.000976562 11.2192 7.42823 13.9703 9.00023 17.25C10.5722 13.9703 18.0002 11.2192 18.0002 5.76675C18.0002 2.32725 15.4397 0.75 13.1372 0.75Z" fill="#97999C"/>
</g>
<defs>
<clipPath id="clip0_1102_849">
<rect width="18" height="18" fill="white"/>
</clipPath>
</defs>
</svg>
