<svg width="34" height="45" viewBox="0 0 34 45" fill="none" xmlns="http://www.w3.org/2000/svg">
<circle cx="18" cy="16" r="16" fill="#326243" fill-opacity="0.4"/>
<circle cx="17" cy="18" r="16" fill="#326243" fill-opacity="0.6"/>
<path d="M16 5C7.16344 5 0 12.1634 0 21C0 24.794 1.32054 28.2796 3.52706 31.0222C7.42869 35.8717 13.1252 39.4795 16 45C18.8748 39.4795 24.5713 35.8717 28.4729 31.0222C30.6795 28.2796 32 24.794 32 21C32 12.1634 24.8366 5 16 5Z" fill="#326243"/>
<circle cx="16" cy="21" r="11" fill="#F5F7FA"/>
<path d="M19.5469 25H18.416L14.1211 18.4258V25H12.9902V16.4688H14.1211L18.4277 23.0723V16.4688H19.5469V25Z" fill="#326243"/>
</svg>
