<svg width="45" height="45" viewBox="0 0 45 45" fill="none" xmlns="http://www.w3.org/2000/svg">
<path d="M7.5 19C7.5 10.4396 14.4396 3.5 23 3.5C31.5604 3.5 38.5 10.4396 38.5 19C38.5 22.6759 37.221 26.0517 35.0834 28.7087C33.5818 30.5752 31.8154 32.2501 30.0219 33.9507C29.5162 34.4302 29.0083 34.9117 28.5037 35.4002C26.4447 37.3929 24.4543 39.4879 23 41.9678C21.5457 39.4879 19.5553 37.3929 17.4963 35.4002C16.9917 34.9117 16.4838 34.4302 15.9781 33.9507C14.1846 32.2501 12.4182 30.5752 10.9166 28.7087C8.77898 26.0518 7.5 22.6759 7.5 19Z" fill="#326243" stroke="#32493A"/>
<circle cx="23" cy="19" r="11" fill="#F5F7FA"/>
<path d="M28.9419 13L20.62 21.0523L17.0581 17.5977L15 19.5716L20.62 25L31 14.9739L28.9419 13Z" fill="#326243"/>
</svg>
