<svg width="45" height="45" viewBox="0 0 45 45" fill="none" xmlns="http://www.w3.org/2000/svg">
<circle cx="23" cy="16" r="16" fill="#ADC0B4"/>
<circle cx="22" cy="18" r="15.5" fill="#638870" stroke="#5A7764"/>
<path d="M5.5 21C5.5 12.4396 12.4396 5.5 21 5.5C29.5604 5.5 36.5 12.4396 36.5 21C36.5 24.6759 35.221 28.0517 33.0834 30.7087C31.5818 32.5752 29.8154 34.2501 28.0219 35.9507C27.5162 36.4302 27.0083 36.9117 26.5037 37.4002C24.4447 39.3929 22.4543 41.4879 21 43.9678C19.5457 41.4879 17.5553 39.3929 15.4963 37.4002C14.9917 36.9117 14.4838 36.4302 13.9781 35.9507C12.1846 34.2501 10.4182 32.5752 8.91663 30.7087C6.77898 28.0518 5.5 24.6759 5.5 21Z" fill="#326243" stroke="#32493A"/>
<circle cx="21" cy="21" r="11" fill="#F5F7FA"/>
</svg>
