<svg width="36" height="36" viewBox="0 0 36 36" fill="none" xmlns="http://www.w3.org/2000/svg">
<path d="M6.1001 15.1999C6.1001 8.4068 11.607 2.8999 18.4001 2.8999C25.1932 2.8999 30.7001 8.4068 30.7001 15.1999C30.7001 18.117 29.6852 20.7957 27.9889 22.9042C26.7922 24.3916 25.3856 25.7254 23.9517 27.0851C23.5464 27.4694 23.139 27.8557 22.7335 28.2482C21.1255 29.8045 19.5627 31.4451 18.4001 33.3784C17.2375 31.4451 15.6747 29.8045 14.0667 28.2482C13.6612 27.8557 13.2538 27.4694 12.8485 27.0851C11.4145 25.7254 10.008 24.3916 8.81131 22.9042C7.11497 20.7957 6.1001 18.117 6.1001 15.1999Z" fill="#326243" stroke="#32493A"/>
<ellipse cx="18.4001" cy="15.1999" rx="8.8" ry="8.8" fill="#F5F7FA"/>
<path d="M23.1535 10.3999L16.496 16.8417L13.6465 14.0781L12 15.6572L16.496 19.9999L24.8 11.979L23.1535 10.3999Z" fill="#326243"/>
</svg>
