<svg width="36" height="36" viewBox="0 0 36 36" fill="none" xmlns="http://www.w3.org/2000/svg">
<path d="M5.30005 14.8C5.30005 8.0069 10.8069 2.5 17.6 2.5C24.3932 2.5 29.9 8.0069 29.9 14.8C29.9 17.7171 28.8852 20.3958 27.1888 22.5043C25.9922 23.9917 24.5856 25.3255 23.1516 26.6852C22.7464 27.0695 22.3389 27.4558 21.9334 27.8483C20.3254 29.4046 18.7626 31.0452 17.6 32.9785C16.4375 31.0452 14.8747 29.4046 13.2667 27.8483C12.8612 27.4558 12.4537 27.0695 12.0485 26.6852C10.6145 25.3254 9.2079 23.9917 8.01126 22.5043C6.31492 20.3958 5.30005 17.7171 5.30005 14.8Z" fill="#326243" stroke="#32493A"/>
<ellipse cx="17.6" cy="14.8002" rx="5.6" ry="5.6" fill="#F5F7FA"/>
</svg>
