<svg width="36" height="36" viewBox="0 0 36 36" fill="none" xmlns="http://www.w3.org/2000/svg">
<circle cx="18.4001" cy="12.8" r="12.8" fill="#F9A7A7"/>
<circle cx="17.6" cy="14.4001" r="12.3" fill="#F35757" stroke="#D25454"/>
<path d="M4.5 16.8C4.5 10.0069 10.0069 4.5 16.8 4.5C23.5931 4.5 29.1 10.0069 29.1 16.8C29.1 19.7171 28.0851 22.3958 26.3888 24.5043C25.1921 25.9917 23.7855 27.3255 22.3516 28.6852C21.9463 29.0695 21.5389 29.4558 21.1334 29.8483C19.5254 31.4046 17.9626 33.0452 16.8 34.9785C15.6374 33.0452 14.0746 31.4046 12.4666 29.8483C12.0611 29.4558 11.6537 29.0695 11.2484 28.6852C9.81445 27.3254 8.40785 25.9917 7.21121 24.5043C5.51487 22.3958 4.5 19.7171 4.5 16.8Z" fill="#F02222" stroke="#AE1212"/>
<circle cx="16.8" cy="16.8" r="8.8" fill="#F02222"/>
<circle cx="16.8" cy="16.8" r="8.8" fill="#F5F7FA"/>
</svg>
