<svg width="32" height="40" viewBox="0 0 32 40" fill="none" xmlns="http://www.w3.org/2000/svg">
<path d="M0.5 16C0.5 7.43959 7.43959 0.5 16 0.5C24.5604 0.5 31.5 7.43959 31.5 16C31.5 19.6759 30.221 23.0517 28.0834 25.7087C26.5818 27.5752 24.8154 29.2501 23.0219 30.9507C22.5162 31.4302 22.0083 31.9117 21.5037 32.4002C19.4447 34.3929 17.4543 36.4879 16 38.9678C14.5457 36.4879 12.5553 34.3929 10.4963 32.4002C9.99166 31.9117 9.48382 31.4302 8.97814 30.9507C7.18462 29.2501 5.41823 27.5752 3.91663 25.7087C1.77898 23.0518 0.5 19.6759 0.5 16Z" fill="#F02222" stroke="white"/>
</svg>
