<svg width="36" height="36" viewBox="0 0 36 36" fill="none" xmlns="http://www.w3.org/2000/svg">
<path d="M5.30005 15.1999C5.30005 8.4068 10.8069 2.8999 17.6 2.8999C24.3932 2.8999 29.9 8.4068 29.9 15.1999C29.9 18.117 28.8852 20.7957 27.1888 22.9042C25.9922 24.3916 24.5856 25.7253 23.1516 27.0851C22.7464 27.4694 22.3389 27.8557 21.9334 28.2482C20.3254 29.8045 18.7626 31.4451 17.6 33.3784C16.4375 31.4451 14.8747 29.8045 13.2667 28.2482C12.8612 27.8557 12.4537 27.4694 12.0485 27.0851C10.6145 25.7254 9.2079 24.3916 8.01126 22.9042C6.31492 20.7957 5.30005 18.117 5.30005 15.1999Z" fill="#979A9C" stroke="#868686"/>
<ellipse cx="17.6" cy="15.2001" rx="5.6" ry="5.6" fill="#F5F7FA"/>
</svg>
