<svg width="45" height="45" viewBox="0 0 45 45" fill="none" xmlns="http://www.w3.org/2000/svg">
<path d="M6.5 19C6.5 10.4396 13.4396 3.5 22 3.5C30.5604 3.5 37.5 10.4396 37.5 19C37.5 22.6759 36.221 26.0517 34.0834 28.7087C32.5818 30.5752 30.8154 32.2501 29.0219 33.9507C28.5162 34.4302 28.0083 34.9117 27.5037 35.4002C25.4447 37.3929 23.4543 39.4879 22 41.9678C20.5457 39.4879 18.5553 37.3929 16.4963 35.4002C15.9917 34.9117 15.4838 34.4302 14.9781 33.9507C13.1846 32.2501 11.4182 30.5752 9.91663 28.7087C7.77898 26.0518 6.5 22.6759 6.5 19Z" fill="#326243" stroke="#32493A"/>
<circle cx="22" cy="19" r="7" fill="#F5F7FA"/>
</svg>
