<svg width="22" height="6" viewBox="0 0 22 6" fill="none" xmlns="http://www.w3.org/2000/svg">
<path d="M2.66667 0C1.2 0 0 1.2 0 2.66667C0 4.13333 1.2 5.33333 2.66667 5.33333C4.13333 5.33333 5.33333 4.13333 5.33333 2.66667C5.33333 1.2 4.13333 0 2.66667 0ZM18.6667 0C17.2 0 16 1.2 16 2.66667C16 4.13333 17.2 5.33333 18.6667 5.33333C20.1333 5.33333 21.3333 4.13333 21.3333 2.66667C21.3333 1.2 20.1333 0 18.6667 0ZM10.6667 0C9.2 0 8 1.2 8 2.66667C8 4.13333 9.2 5.33333 10.6667 5.33333C12.1333 5.33333 13.3333 4.13333 13.3333 2.66667C13.3333 1.2 12.1333 0 10.6667 0Z" fill="#326243"/>
</svg>
