<svg width="24" height="24" viewBox="0 0 24 24" fill="none" xmlns="http://www.w3.org/2000/svg">
<g id="markers">
<path id="Ellipse 125" d="M3.7002 10.1333C3.7002 5.69662 7.29684 2.09998 11.7335 2.09998C16.1702 2.09998 19.7669 5.69662 19.7669 10.1333C19.7669 12.0387 19.1041 13.7879 17.9962 15.165C17.2062 16.147 16.2793 17.026 15.3247 17.9312C15.0534 18.1885 14.7798 18.4479 14.5065 18.7124C13.4966 19.6899 12.5031 20.7265 11.7335 21.9356C10.964 20.7265 9.97046 19.6899 8.96051 18.7124C8.68722 18.4479 8.41365 18.1885 8.14231 17.9312C7.18778 17.026 6.26089 16.147 5.47086 15.165C4.36292 13.7879 3.7002 12.0387 3.7002 10.1333Z" fill="#C2D0C7" stroke="#C2D0C7"/>
<ellipse id="Ellipse 126" cx="11.7333" cy="10.1334" rx="3.73333" ry="3.73333" fill="white"/>
</g>
</svg>