<svg width="24" height="24" viewBox="0 0 24 24" fill="none" xmlns="http://www.w3.org/2000/svg">
<path d="M4 10.2C4 5.65043 7.60233 2 12 2C16.3977 2 20 5.65043 20 10.2C20 12.1329 19.3488 13.9052 18.2613 15.3045C17.4423 16.3584 16.4741 17.2978 15.4487 18.2927C15.1725 18.5608 14.892 18.8329 14.6093 19.1123C13.6968 20.014 12.7749 20.9799 12 22.0786C11.2251 20.9799 10.3032 20.014 9.39072 19.1123C9.10795 18.8329 8.82754 18.5608 8.55129 18.2927C7.52585 17.2978 6.55769 16.3584 5.73867 15.3045C4.65123 13.9052 4 12.1329 4 10.2Z" fill="white" stroke="white" stroke-width="2"/>
<path d="M10.9 9.90005V6.30005H12.7V9.90005H16.3V11.7H12.7V15.3H10.9V11.7H7.30005V9.90005H10.9Z" fill="#326243"/>
<path d="M11.8 5.3999V16.1999" stroke="#326243" stroke-width="3"/>
<path d="M6.3999 10.8H17.1999" stroke="#326243" stroke-width="3"/>
</svg>
