<svg width="24" height="24" viewBox="0 0 24 24" fill="none" xmlns="http://www.w3.org/2000/svg">
<path d="M8.4 0C3.77502 0 0 3.77502 0 8.4C0 13.025 3.77502 16.8 8.4 16.8C10.4976 16.8 12.414 16.0176 13.8891 14.7375L14.4 15.2484V16.8L21.6 24L24 21.6L16.8 14.4H15.2484L14.7375 13.8891C16.0176 12.414 16.8 10.4976 16.8 8.4C16.8 3.77502 13.025 0 8.4 0ZM8.4 2.4C11.7279 2.4 14.4 5.07208 14.4 8.4C14.4 11.7279 11.7279 14.4 8.4 14.4C5.07208 14.4 2.4 11.7279 2.4 8.4C2.4 5.07208 5.07208 2.4 8.4 2.4Z" fill="#979A9C"/>
</svg>
