<svg width="25" height="24" viewBox="0 0 25 24" fill="none" xmlns="http://www.w3.org/2000/svg">
<path d="M12.14 7.032C13.0827 7.032 13.7873 7.20933 14.254 7.564C14.73 7.90933 14.968 8.45533 14.968 9.202C14.968 9.622 14.884 9.986 14.716 10.294C14.548 10.5927 14.338 10.868 14.086 11.12C13.8433 11.372 13.596 11.6333 13.344 11.904C13.1013 12.1653 12.8913 12.4687 12.714 12.814C12.5367 13.15 12.4387 13.5607 12.42 14.046H11.398C11.3887 13.5327 11.4587 13.0893 11.608 12.716C11.7573 12.3427 11.944 12.016 12.168 11.736C12.4013 11.456 12.6347 11.1993 12.868 10.966C13.1013 10.7233 13.2973 10.4807 13.456 10.238C13.6147 9.99533 13.6987 9.72 13.708 9.412C13.7267 8.94533 13.5867 8.6 13.288 8.376C12.9987 8.152 12.532 8.04 11.888 8.04C11.4307 8.04 11.0527 8.04467 10.754 8.054C10.4647 8.06333 10.1987 8.082 9.956 8.11C9.72267 8.12867 9.44733 8.152 9.13 8.18L9.06 7.326C9.38667 7.27 9.676 7.22333 9.928 7.186C10.18 7.13933 10.474 7.102 10.81 7.074C11.146 7.046 11.5893 7.032 12.14 7.032ZM12.07 15.348C12.2287 15.348 12.3407 15.3807 12.406 15.446C12.4713 15.5113 12.504 15.628 12.504 15.796V16.552C12.504 16.72 12.4713 16.8367 12.406 16.902C12.3407 16.9673 12.2287 17 12.07 17H11.748C11.5893 17 11.4773 16.9673 11.412 16.902C11.3467 16.8367 11.314 16.72 11.314 16.552V15.796C11.314 15.628 11.3467 15.5113 11.412 15.446C11.4773 15.3807 11.5893 15.348 11.748 15.348H12.07Z" fill="#f02222ff"/>
<path d="M23.5642 12C23.5642 18.35 18.4023 23.5 12.0321 23.5C5.66183 23.5 0.5 18.35 0.5 12C0.5 5.64998 5.66183 0.5 12.0321 0.5C18.4023 0.5 23.5642 5.64998 23.5642 12Z" stroke="#f02222ff"/>
</svg>
