<svg width="16" height="16" viewBox="0 0 16 16" fill="none" xmlns="http://www.w3.org/2000/svg">
<path d="M10.1604 11.8589L9.93515 10.7584H9.88055C9.50739 11.2428 9.13424 11.572 8.76109 11.746C8.39249 11.9153 7.9306 12 7.37543 12C6.63367 12 6.05119 11.8025 5.62799 11.4074C5.20933 11.0123 5 10.4503 5 9.72134C5 8.15991 6.20819 7.34156 8.62457 7.26631L9.8942 7.22399V6.74427C9.8942 6.13757 9.76678 5.69077 9.51195 5.40388C9.26166 5.11229 8.85893 4.96649 8.30375 4.96649C7.68032 4.96649 6.97497 5.16402 6.18771 5.55908L5.83959 4.66314C6.20819 4.4562 6.61092 4.29394 7.04778 4.17637C7.48919 4.05879 7.9306 4 8.37201 4C9.26394 4 9.92378 4.20459 10.3515 4.61376C10.7838 5.02293 11 5.67901 11 6.58201V11.8589H10.1604ZM7.60068 11.0335C8.30603 11.0335 8.85893 10.8336 9.25939 10.4339C9.66439 10.0341 9.86689 9.47443 9.86689 8.75485V8.05644L8.73379 8.10582C7.83276 8.13874 7.18202 8.28454 6.78157 8.54321C6.38567 8.79718 6.18771 9.19459 6.18771 9.73545C6.18771 10.1587 6.31058 10.4809 6.55631 10.7019C6.8066 10.923 7.15472 11.0335 7.60068 11.0335Z" fill="#326243"/>
<circle cx="8" cy="8" r="7" stroke="#326243" stroke-width="2"/>
</svg>
