<svg width="25" height="24" viewBox="0 0 25 24" fill="none" xmlns="http://www.w3.org/2000/svg">
<g clip-path="url(#clip0)">
<path d="M24.0427 12C24.0427 18.35 18.8808 23.5 12.5106 23.5C6.14035 23.5 0.978516 18.35 0.978516 12C0.978516 5.64998 6.14035 0.5 12.5106 0.5C18.8808 0.5 24.0427 5.64998 24.0427 12Z" stroke="#326243"/>
<path d="M13.0842 7C13.262 7 13.4164 7.05133 13.5474 7.154C13.6878 7.25667 13.7814 7.392 13.8282 7.56L16.6357 16.66H14.4458L13.7299 14.098H10.389L9.68715 16.66H7.49731L10.3048 7.56C10.3516 7.392 10.4405 7.25667 10.5715 7.154C10.7119 7.05133 10.871 7 11.0488 7H13.0842ZM11.6664 9.548L10.8382 12.502H13.2807L12.4666 9.548C12.4198 9.39867 12.3777 9.24467 12.3402 9.086C12.3122 8.918 12.2841 8.75933 12.256 8.61H11.877C11.8489 8.75933 11.8162 8.918 11.7787 9.086C11.7413 9.24467 11.7039 9.39867 11.6664 9.548Z" fill="#326243"/>
</g>
<defs>
<clipPath id="clip0">
<rect width="24.0642" height="24" fill="white" transform="translate(0.478516)"/>
</clipPath>
</defs>
</svg>
