<svg width="16" height="16" viewBox="0 0 16 16" fill="none" xmlns="http://www.w3.org/2000/svg">
<path d="M15.5554 7.97273C15.0801 7.48477 14.9741 6.74342 15.2934 6.13985C15.5214 5.70969 15.5374 5.19821 15.3361 4.75393C15.1354 4.31033 14.7408 3.98637 14.2688 3.87883C13.6082 3.7276 13.1209 3.16167 13.0669 2.48014C13.0276 1.99419 12.7663 1.55395 12.359 1.29048C11.953 1.02633 11.4477 0.969203 10.9924 1.13656C10.3551 1.36979 9.64179 1.15807 9.23115 0.614993C8.93783 0.22785 8.48186 0 7.99789 0C7.51459 0 7.05861 0.22785 6.7653 0.614993C6.35666 1.15874 5.64337 1.37046 5.00608 1.13723C4.55144 0.970547 4.04614 1.02768 3.63949 1.29115C3.23285 1.55462 2.97087 1.99486 2.9322 2.48081C2.87754 3.16234 2.3909 3.72894 1.73028 3.8795C1.25831 3.98704 0.863667 4.311 0.663012 4.7546C0.462358 5.19821 0.478357 5.71036 0.706343 6.13985C1.02566 6.74275 0.919663 7.48477 0.445026 7.97273C0.105714 8.32022 -0.052943 8.80751 0.0157194 9.2901C0.0843818 9.77268 0.37303 10.1954 0.795671 10.4327C1.38763 10.7654 1.69695 11.4476 1.55829 12.1164C1.4603 12.5936 1.58762 13.0896 1.90427 13.4579C2.22158 13.8269 2.69089 14.0252 3.17219 13.9943C3.84948 13.9519 4.47411 14.3572 4.71676 14.9951C4.88942 15.4508 5.26339 15.7983 5.72803 15.9354C6.19134 16.0725 6.69264 15.9838 7.08195 15.6954C7.62791 15.2901 8.37253 15.2901 8.91783 15.6954C9.30714 15.9845 9.80844 16.0732 10.2717 15.9354C10.7364 15.7983 11.1104 15.4501 11.2837 14.9951C11.5257 14.3572 12.151 13.9513 12.8276 13.9943C13.3102 14.0252 13.7789 13.8269 14.0955 13.4579C14.4122 13.0896 14.5401 12.5936 14.4415 12.1164C14.3035 11.4476 14.6121 10.7654 15.2048 10.4327C15.6267 10.1948 15.9147 9.77268 15.9841 9.2901C16.0534 8.80751 15.8941 8.32022 15.5554 7.97273ZM7.16661 11.6224L4.16679 8.68922L5.40472 7.44108L7.16661 9.12543L10.9284 5.23786L12.1663 6.486L7.16661 11.6224Z" fill="#326243"/>
</svg>
