<svg width="24" height="24" viewBox="0 0 24 24" fill="none" xmlns="http://www.w3.org/2000/svg">
<g clip-path="url(#clip0)">
<path d="M23.334 11.96C22.621 11.234 22.462 10.131 22.941 9.23302C23.283 8.59302 23.307 7.83202 23.005 7.17102C22.704 6.51102 22.112 6.02902 21.404 5.86902C20.413 5.64402 19.682 4.80202 19.601 3.78802C19.542 3.06502 19.15 2.41002 18.539 2.01802C17.93 1.62502 17.172 1.54002 16.489 1.78902C15.533 2.13602 14.463 1.82102 13.847 1.01302C13.407 0.437023 12.723 0.0980225 11.997 0.0980225C11.272 0.0980225 10.588 0.437023 10.148 1.01302C9.53497 1.82202 8.46497 2.13702 7.50897 1.79002C6.82697 1.54202 6.06897 1.62702 5.45897 2.01902C4.84897 2.41102 4.45597 3.06602 4.39797 3.78902C4.31597 4.80302 3.58597 5.64602 2.59497 5.87002C1.88697 6.03002 1.29497 6.51202 0.99397 7.17202C0.69297 7.83202 0.71697 8.59402 1.05897 9.23302C1.53797 10.13 1.37897 11.234 0.66697 11.96C0.15797 12.477 -0.0800299 13.202 0.0229701 13.92C0.12597 14.638 0.55897 15.267 1.19297 15.62C2.08097 16.115 2.54497 17.13 2.33697 18.125C2.18997 18.835 2.38097 19.573 2.85597 20.121C3.33197 20.67 4.03597 20.965 4.75797 20.919C5.77397 20.856 6.71097 21.459 7.07497 22.408C7.33397 23.086 7.89497 23.603 8.59197 23.807C9.28697 24.011 10.039 23.879 10.623 23.45C11.442 22.847 12.559 22.847 13.377 23.45C13.961 23.88 14.713 24.012 15.408 23.807C16.105 23.603 16.666 23.085 16.926 22.408C17.289 21.459 18.227 20.855 19.242 20.919C19.966 20.965 20.669 20.67 21.144 20.121C21.619 19.573 21.811 18.835 21.663 18.125C21.456 17.13 21.919 16.115 22.808 15.62C23.441 15.266 23.873 14.638 23.977 13.92C24.081 13.202 23.842 12.477 23.334 11.96V11.96ZM10.75 17.39L6.24997 13.026L8.10697 11.169L10.75 13.675L16.393 7.89102L18.25 9.74802L10.75 17.39Z" fill="#326243"/>
</g>
<defs>
<clipPath id="clip0">
<rect width="24" height="24" fill="white"/>
</clipPath>
</defs>
</svg>
