<?xml version="1.0" encoding="UTF-8" standalone="no"?>
<svg
   xmlns:dc="http://purl.org/dc/elements/1.1/"
   xmlns:cc="http://creativecommons.org/ns#"
   xmlns:rdf="http://www.w3.org/1999/02/22-rdf-syntax-ns#"
   xmlns:svg="http://www.w3.org/2000/svg"
   xmlns="http://www.w3.org/2000/svg"
   width="22"
   height="22"
   viewBox="0 0 22 22"
   fill="none"
   version="1.1"
   id="svg6">
  <metadata
     id="metadata12">
    <rdf:RDF>
      <cc:Work
         rdf:about="">
        <dc:format>image/svg+xml</dc:format>
        <dc:type
           rdf:resource="http://purl.org/dc/dcmitype/StillImage" />
        <dc:title></dc:title>
      </cc:Work>
    </rdf:RDF>
  </metadata>
  <defs
     id="defs10" />
  <circle
     cx="11.051044"
     cy="11.025522"
     r="11"
     fill="#d2d4d8"
     id="circle2" />
  <path
     d="m 16.1462,14.556 c -2.0061,-0.4632 -3.8739,-0.8692 -2.9692,-2.5772 0.2333,-0.441 0.421022,-0.837464 0.5991,-1.2705 0.148472,-0.361042 0.111736,-0.276195 0.3902,-1.10422 C 15.2373,5.939 13.4272,4 11,4 8.0355,4 6.06208,6.88692 8.823,11.9788 9.75517,13.6967 7.81675,14.1027 5.85383,14.556 4.11608,14.9573 4,15.8061 4,17.2761 L 4.00292,18 H 17.9971 L 18,17.2761 c 0,-1.47 -0.1161,-2.3188 -1.8538,-2.7201 z"
     fill="#ffffff"
     id="path4" />
</svg>
