<svg width="16" height="16" viewBox="0 0 16 16" fill="none" xmlns="http://www.w3.org/2000/svg">
<circle cx="8" cy="8" r="7" stroke="#979A9C" stroke-width="2"/>
<path d="M7.24042 9.49735V9.15873C7.24042 8.77072 7.30236 8.44797 7.42625 8.19048C7.55014 7.93298 7.76694 7.66667 8.07665 7.39153C8.44522 7.05996 8.68215 6.80247 8.78746 6.61905C8.89586 6.43563 8.95006 6.21693 8.95006 5.96296C8.95006 5.66667 8.86334 5.43915 8.6899 5.28042C8.51645 5.12169 8.26713 5.04233 7.94193 5.04233C7.6477 5.04233 7.37515 5.08995 7.12427 5.18519C6.8734 5.28042 6.62873 5.39506 6.39024 5.5291L6 4.59788C6.62873 4.19929 7.30236 4 8.02091 4C8.62795 4 9.10956 4.16931 9.46574 4.50794C9.82191 4.84656 10 5.31393 10 5.91005C10 6.1746 9.96593 6.41093 9.89779 6.61905C9.82966 6.82363 9.7259 7.0194 9.58653 7.20635C9.45025 7.3933 9.21332 7.63668 8.87573 7.93651C8.58769 8.194 8.39412 8.40741 8.29501 8.57672C8.19899 8.74603 8.15099 8.97354 8.15099 9.25926V9.49735H7.24042ZM7.04994 11.1852C7.04994 10.6526 7.27758 10.3862 7.73287 10.3862C7.95587 10.3862 8.12621 10.4568 8.2439 10.5979C8.36159 10.7354 8.42044 10.9312 8.42044 11.1852C8.42044 11.4356 8.36005 11.6349 8.23926 11.7831C8.12156 11.9277 7.95277 12 7.73287 12C7.51297 12 7.34417 11.9295 7.22648 11.7884C7.10879 11.6437 7.04994 11.4427 7.04994 11.1852Z" fill="#979A9C"/>
</svg>
